<?xml version="1.0" encoding="UTF-8"?>
<svg width="74px" height="74px" viewBox="0 0 74 74" version="1.1" xmlns="http://www.w3.org/2000/svg" xmlns:xlink="http://www.w3.org/1999/xlink">
    <!-- Generator: Sketch 50.2 (55047) - http://www.bohemiancoding.com/sketch -->
    <title>svg/Sad smiley</title>
    <desc>Created with Sketch.</desc>
    <defs></defs>
    <g id="Page-1" stroke="none" stroke-width="1" fill="none" fill-rule="evenodd">
        <g id="Tegnet-findes-ikke" transform="translate(-150.000000, -127.000000)" fill="#097373">
            <g transform="translate(75.000000, 127.000000)" id="Sad-smiley">
                <path d="M128.187774,54.1916023 C125.331843,47.90955 119.039824,43.8505967 112.158397,43.8505967 C105.277681,43.8505967 98.9877982,47.90955 96.1318669,54.1916023 C95.916889,54.6656926 95.4499172,54.9447367 94.9615899,54.9447367 C94.7843399,54.9447367 94.6035307,54.9077206 94.4305518,54.8294174 C93.7841945,54.5354245 93.4987437,53.7744598 93.7927367,53.1273906 C97.0629631,45.9306145 104.272552,41.280828 112.158397,41.280828 C120.044241,41.280828 127.255254,45.9306145 130.528328,53.1273906 C130.821609,53.7737479 130.536158,54.5354245 129.890513,54.8294174 C129.244155,55.1241222 128.481767,54.8386715 128.187774,54.1916023 Z M103.720159,29.0982735 C103.720159,30.9305685 102.237381,32.4169056 100.403662,32.4169056 C98.5727912,32.4169056 97.0850304,30.9305685 97.0850304,29.0982735 C97.0850304,27.2659786 98.5727912,25.7803533 100.403662,25.7803533 C102.237381,25.7803533 103.720159,27.2659786 103.720159,29.0982735 Z M127.236746,29.0982735 C127.236746,30.9305685 125.749697,32.4169056 123.91669,32.4169056 C122.084395,32.4169056 120.599482,30.9305685 120.599482,29.0982735 C120.599482,27.2659786 122.084395,25.7803533 123.91669,25.7803533 C125.749697,25.7803533 127.236746,27.2659786 127.236746,29.0982735 Z M75.742425,37.1599441 C75.742425,57.2411561 92.0786084,73.5780513 112.158397,73.5780513 C132.241744,73.5780513 148.580775,57.2411561 148.580775,37.1599441 C148.580775,17.0794439 132.241744,0.742548695 112.158397,0.742548695 C92.0786084,0.742548695 75.742425,17.0794439 75.742425,37.1599441 Z"></path>
            </g>
        </g>
    </g>
</svg>