<?xml version="1.0" encoding="UTF-8"?>
<svg width="24px" height="17px" viewBox="0 0 24 17" version="1.1" xmlns="http://www.w3.org/2000/svg" xmlns:xlink="http://www.w3.org/1999/xlink">
    <!-- Generator: Sketch 50.2 (55047) - http://www.bohemiancoding.com/sketch -->
    <title>svg/Udforsk-colour</title>
    <desc>Created with Sketch.</desc>
    <defs></defs>
    <g id="Symbols" stroke="none" stroke-width="1" fill="none" fill-rule="evenodd">
        <g id="Menu-bar-Udforsk" transform="translate(-295.000000, -11.000000)" stroke="#5CC4C4" stroke-width="2">
            <g id="Menu">
                <g id="Udforsk" transform="translate(279.000000, 12.000000)">
                    <g id="Udforsk-colour" transform="translate(17.000000, 0.000000)">
                        <path d="M11,0 C4.92476471,0 0,6.01635294 0,7.11764706 C0,8.21894118 4.92476471,14.2352941 11,14.2352941 C17.0752353,14.2352941 22,8.21894118 22,7.11764706 C22,6.01635294 17.0752353,0 11,0 Z" id="Stroke-1" stroke-linejoin="round"></path>
                        <path d="M14.8823529,7.11764706 C14.8823529,9.26135294 13.1437059,11 11,11 C8.85629412,11 7.11764706,9.26135294 7.11764706,7.11764706 C7.11764706,4.97394118 8.85629412,3.23529412 11,3.23529412 C13.1437059,3.23529412 14.8823529,4.97394118 14.8823529,7.11764706 Z" id="Stroke-3"></path>
                    </g>
                </g>
            </g>
        </g>
    </g>
</svg>