<?xml version="1.0" encoding="UTF-8"?>
<svg width="342px" height="392px" viewBox="0 0 342 392" version="1.1" xmlns="http://www.w3.org/2000/svg" xmlns:xlink="http://www.w3.org/1999/xlink">
    <!-- Generator: Sketch 50.2 (55047) - http://www.bohemiancoding.com/sketch -->
    <title>svg/Wign-symbol-RGB-sort</title>
    <desc>Created with Sketch.</desc>
    <defs></defs>
    <g id="Wign-symbol-RGB-sort" stroke="none" stroke-width="1" fill="none" fill-rule="evenodd">
        <path d="M35.592,209.458 L55.062,147.022 L114.757,147.022 L135.189,212.555 L176.364,88.965 L237.237,88.965 L256.112,149.5 L274.987,88.965 L334.444,88.965 C299.46,35.555 239.124,0.249 170.511,0.249 C97.372,0.249 33.643,40.361 0,99.759 L35.592,209.458" id="Fill-1" fill="#1A1919"></path>
        <path d="M305.428,182.791 L285.959,245.227 L226.263,245.227 L205.831,179.694 L164.656,303.284 L103.783,303.284 L84.908,242.749 L66.032,303.284 L6.576,303.284 C41.56,356.693 101.895,392 170.511,392 C243.648,392 307.376,351.888 341.02,292.49 L305.428,182.791" id="Fill-3" fill="#1A1919"></path>
    </g>
</svg>