<?xml version="1.0" encoding="UTF-8"?>
<svg width="1321px" height="369px" viewBox="0 0 1321 369" version="1.1" xmlns="http://www.w3.org/2000/svg" xmlns:xlink="http://www.w3.org/1999/xlink">
    <!-- Generator: Sketch 50.2 (55047) - http://www.bohemiancoding.com/sketch -->
    <title>svg/Wign-RGB</title>
    <desc>Created with Sketch.</desc>
    <defs>
        <path d="M33.487,197.249 L0,94.036 C31.654,38.149 91.616,0.408 160.431,0.408 C224.989,0.408 281.757,33.627 314.672,83.879 L258.731,83.879 L240.972,140.835 L223.212,83.879 L165.938,83.879 L127.197,200.164 L107.973,138.504 L51.807,138.504 L33.487,197.249 Z" id="path-1"></path>
        <linearGradient x1="11.9109119%" y1="0.152906194%" x2="11.9109119%" y2="99.7877328%" id="linearGradient-3">
            <stop stop-color="#72C09F" offset="0%"></stop>
            <stop stop-color="#59BCB4" offset="100%"></stop>
        </linearGradient>
        <path d="M281.372,3.158 L263.055,61.904 L206.887,61.904 L187.663,0.245 L148.922,116.529 L91.648,116.529 L73.889,59.573 L56.129,116.529 L0.187,116.529 C33.103,166.78 89.872,200 154.431,200 C223.244,200 283.205,162.259 314.86,106.373 L281.372,3.158" id="path-4"></path>
        <linearGradient x1="50.0001589%" y1="-84.2398939%" x2="50.0001589%" y2="99.6083202%" id="linearGradient-6">
            <stop stop-color="#72C09F" offset="0%"></stop>
            <stop stop-color="#59BCB4" offset="100%"></stop>
        </linearGradient>
    </defs>
    <g id="Wign-RGB" stroke="none" stroke-width="1" fill="none" fill-rule="evenodd">
        <g id="Group-3">
            <mask id="mask-2" fill="white">
                <use xlink:href="#path-1"></use>
            </mask>
            <g id="Clip-2"></g>
            <polygon id="Fill-1" fill="url(#linearGradient-3)" mask="url(#mask-2)" points="0 369 1320.94 369 1320.94 0.408 0 0.408"></polygon>
        </g>
        <g id="Group-6" transform="translate(6.000000, 169.000000)">
            <mask id="mask-5" fill="white">
                <use xlink:href="#path-4"></use>
            </mask>
            <g id="Clip-5"></g>
            <path d="M281.372,3.158 L263.055,61.904 L206.887,61.904 L187.663,0.245 L148.922,116.529 L91.648,116.529 L73.889,59.573 L56.129,116.529 L0.187,116.529 C33.103,166.78 89.872,200 154.431,200 C223.244,200 283.205,162.259 314.86,106.373 L281.372,3.158" id="Fill-4" fill="url(#linearGradient-6)" mask="url(#mask-5)"></path>
        </g>
        <path d="M1074.73,172.561 L1056.05,278.206 C1056.05,278.206 1021.46,299.785 973.345,299.785 C925.231,299.785 866.184,278.306 866.184,202.534 C866.184,126.762 923.851,73.454 995.934,73.454 C1033.48,73.454 1060.31,85.859 1076.22,103.293 L1029.8,153.249 C1029.8,153.249 1018.48,135.469 994.593,135.469 C968.107,135.469 939.273,158.613 939.273,197.169 C939.273,235.726 970.119,239.415 980.847,239.415 C991.576,239.415 1001.3,236.061 1001.3,236.061 L1004.48,218.811 L970.381,218.811 L978.608,172.561 L1074.73,172.561" id="Fill-7" fill="#0D1010"></path>
        <path d="M456.052,294.064 L510.397,294.064 C520.938,294.064 530.515,287.927 534.92,278.351 L584.142,171.326 L593.65,294.064 L664.306,294.064 L765.642,79.824 L690.744,79.824 L640.117,202.87 L637.099,79.824 L564.681,79.824 L514.39,202.87 L504.864,79.824 L439.455,79.824 L456.052,294.064" id="Fill-8" fill="#0D1010"></path>
        <path d="M1124.64,79.824 L1193.31,79.824 L1236.74,191.181 L1256.09,79.824 L1320.94,79.824 L1283.72,294.064 L1215.02,294.064 L1173.59,187.294 L1158.88,271.706 C1156.63,284.63 1145.41,294.064 1132.29,294.064 L1087.42,294.064 L1124.64,79.824" id="Fill-9" fill="#0D1010"></path>
        <path d="M780.913,134.722 L848.225,134.722 L824.432,271.692 C822.186,284.623 810.963,294.064 797.838,294.064 L753.235,294.064 L780.913,134.722" id="Fill-10" fill="#0D1010"></path>
        <path d="M856.495,84.475 C856.495,107.484 837.511,122.823 818.902,122.823 C800.292,122.823 785.206,111.507 785.206,92.103 C785.206,75.137 798.911,54.678 822.17,54.678 C840.78,54.678 856.495,67.51 856.495,84.475" id="Fill-11" fill="#0D1010"></path>
    </g>
</svg>